<svg xmlns="http://www.w3.org/2000/svg" xmlns:xlink="http://www.w3.org/1999/xlink" width="63" height="54" viewBox="0 0 63 54">
  <defs>
    <clipPath id="clip-path">
      <rect id="Rectangle_54" data-name="Rectangle 54" width="63" height="54" transform="translate(0 -0.202)" fill="#fff" stroke="#707070" stroke-width="1"/>
    </clipPath>
  </defs>
  <g id="Group_20" data-name="Group 20" transform="translate(1381 -1513)">
    <g id="Group_21" data-name="Group 21" transform="translate(92 152.202)">
      <g id="Group_19" data-name="Group 19" transform="translate(-1473 1361)">
        <g id="Mask_Group_18" data-name="Mask Group 18" clip-path="url(#clip-path)">
          <path id="__TEMP__SVG__" d="M26.9,43.711A21.855,21.855,0,1,0,5.044,21.855,21.852,21.852,0,0,0,26.9,43.711ZM24.97,13.669l1.333-1.8c0-.967-.967,4.917,0,4.917l.6,2.79c.967,0-1.929-3.757-1.929-2.79h3.842c1.629.084-3.821-2.364-2.509-1.387.589.43,3.035-2.237,2.509-1.733V15.4c-.4.389.472.19,0-.1-.568-.357.672-.432,0-.432H24.725a1.828,1.828,0,0,0-1.713,1.923,1.9,1.9,0,0,0,1.272,1.85l3.192,3.216c2.7.808,1.744.409,1.744,3.32,0,3.573,1.692,3.037-1.744,3.132v1.733c0,.967.967,1.8,0,1.8H26.9c-.967,0,0-.829,0-1.8H24.97c-1.629-.084,1.312.977,0,0-.589-.43-5.58.5-5.054,0l1.713-1.629a1.184,1.184,0,0,1,1.47-.1,3.463,3.463,0,0,0,1.871.536h4.087a1.828,1.828,0,0,0,1.713-1.923c0-.862-.8-4.845-1.55-5.066L24.559,20.6c-2.7-.808,1.9-.466-.275-3.815a10.6,10.6,0,0,0,0-1.923c-.148-.8-1.623-1.133.689-1.2ZM50.436,36.986H47.021a25.464,25.464,0,0,1-7.671,6.725h6.7a.937.937,0,0,1,1.009.841v1.681a.938.938,0,0,1-1.009.841H7.733a.937.937,0,0,1-1.009-.841V44.552a.938.938,0,0,1,1.009-.841h6.7a25.589,25.589,0,0,1-7.671-6.725h-3.4A3.358,3.358,0,0,0,0,40.348V50.436A3.358,3.358,0,0,0,3.362,53.8H50.436A3.358,3.358,0,0,0,53.8,50.436V40.348A3.358,3.358,0,0,0,50.436,36.986Z" transform="translate(4.555)" fill="#f8b703"/>
        </g>
        <circle id="Ellipse_8" data-name="Ellipse 8" cx="15.5" cy="15.5" r="15.5" transform="translate(16 6.798)" fill="#f8b703"/>
      </g>
      <path id="rupee-sign" d="M19.231,6.071a.734.734,0,0,0,.75-.717V2.967a.734.734,0,0,0-.75-.717H.75A.734.734,0,0,0,0,2.967V5.638a.734.734,0,0,0,.75.717H6.074A4.591,4.591,0,0,1,9.881,7.981H.75A.734.734,0,0,0,0,8.7v2.388a.734.734,0,0,0,.75.717h9.913C10.275,13.956,8.6,15.3,6,15.3H.75a.734.734,0,0,0-.75.717v3.164a.7.7,0,0,0,.241.526l10.306,9.1a.769.769,0,0,0,.508.19h5.155a.713.713,0,0,0,.508-1.243L7.3,19.436c4.777-.14,8.189-3.187,8.636-7.635h3.3a.734.734,0,0,0,.75-.717V8.7a.734.734,0,0,0-.75-.717H15.567a8.006,8.006,0,0,0-.89-1.91h4.555Z" transform="translate(-1451.741 1368.564)" fill="#fff"/>
    </g>
  </g>
</svg>
